<svg width="91" height="20" viewBox="0 0 91 20" fill="none" xmlns="http://www.w3.org/2000/svg"> <path d="M46.8143 6.51894L45.3588 7.96258C44.7673 7.38006 44.231 7.09302 43.7501 7.09302C43.4863 7.09302 43.2777 7.14789 43.1288 7.25764C42.9798 7.36739 42.9032 7.50669 42.9032 7.67132C42.9032 7.79796 42.95 7.91193 43.0436 8.01746C43.1373 8.12299 43.3713 8.26651 43.7459 8.44802L44.6055 8.87436C45.512 9.31758 46.1334 9.76925 46.4739 10.2336C46.8143 10.6937 46.9803 11.234 46.9803 11.8545C46.9803 12.6777 46.6739 13.3699 46.0653 13.9187C45.4525 14.4717 44.6353 14.746 43.6097 14.746C42.2435 14.746 41.154 14.2184 40.3369 13.1589L41.7839 11.597C42.0605 11.9178 42.384 12.1753 42.7542 12.3695C43.1245 12.5679 43.4522 12.665 43.7416 12.665C44.0523 12.665 44.2991 12.5932 44.4906 12.4413C44.6821 12.2935 44.7758 12.1247 44.7758 11.9305C44.7758 11.5717 44.4353 11.2213 43.7501 10.8794L42.9585 10.4869C41.4434 9.73126 40.6859 8.78149 40.6859 7.64599C40.6859 6.91151 40.971 6.28255 41.5413 5.76334C42.1116 5.24414 42.8436 4.98242 43.7331 4.98242C44.3417 4.98242 44.912 5.11328 45.4482 5.37921C45.9887 5.64515 46.4441 6.02506 46.8143 6.51894Z" fill="white"/> <path d="M55.7472 5.22334H58.0965V14.51H55.7472V13.5264C55.2876 13.9612 54.828 14.2694 54.3683 14.4593C53.9087 14.6493 53.4065 14.7463 52.8703 14.7463C51.6616 14.7463 50.6147 14.282 49.7337 13.3491C48.8528 12.4205 48.4102 11.2639 48.4102 9.87932C48.4102 8.44411 48.8357 7.27062 49.6912 6.35462C50.5466 5.43863 51.5808 4.97852 52.8022 4.97852C53.364 4.97852 53.8917 5.08405 54.3854 5.2951C54.8791 5.50616 55.3344 5.82275 55.7515 6.24487V5.22334H55.7472ZM53.2789 7.13554C52.5511 7.13554 51.951 7.38881 51.4701 7.89958C50.9892 8.41034 50.7509 9.06041 50.7509 9.85821C50.7509 10.6602 50.9935 11.3187 51.4829 11.8379C51.9723 12.3572 52.5724 12.6146 53.2874 12.6146C54.0236 12.6146 54.6365 12.3614 55.1216 11.8506C55.6068 11.3398 55.8494 10.6729 55.8494 9.84977C55.8494 9.04352 55.6068 8.38924 55.1216 7.88692C54.6365 7.38459 54.0236 7.13554 53.2789 7.13554Z" fill="white"/> <path d="M60.2158 1.63477H62.565V14.5094H60.2158V1.63477Z" fill="white"/> <path d="M71.6134 5.22334H73.9627V14.51H71.6134V13.5264C71.1538 13.9612 70.6942 14.2694 70.2346 14.4593C69.7749 14.6493 69.2727 14.7463 68.7365 14.7463C67.5278 14.7463 66.4809 14.282 65.5999 13.3491C64.719 12.4205 64.2764 11.2639 64.2764 9.87932C64.2764 8.44411 64.7019 7.27062 65.5574 6.35462C66.4128 5.43863 67.447 4.97852 68.6684 4.97852C69.2302 4.97852 69.7579 5.08405 70.2516 5.2951C70.7453 5.50616 71.2006 5.82275 71.6177 6.24487V5.22334H71.6134ZM69.1408 7.13554C68.4131 7.13554 67.813 7.38881 67.3321 7.89958C66.8512 8.41034 66.6128 9.06041 66.6128 9.85821C66.6128 10.6602 66.8554 11.3187 67.3448 11.8379C67.8343 12.3572 68.4343 12.6146 69.1493 12.6146C69.8856 12.6146 70.4984 12.3614 70.9836 11.8506C71.4687 11.3398 71.7113 10.6729 71.7113 9.84977C71.7113 9.04352 71.4687 8.38924 70.9836 7.88692C70.4984 7.38459 69.8856 7.13554 69.1408 7.13554Z" fill="white"/> <path d="M76.32 5.22303H78.6693V6.29099C79.0693 5.85199 79.5162 5.52696 80.0099 5.30745C80.4993 5.09217 81.0355 4.98242 81.6143 4.98242C82.2016 4.98242 82.7294 5.12594 83.1975 5.40876C83.6699 5.69158 84.0487 6.10948 84.3338 6.65401C84.7083 6.10948 85.1637 5.69158 85.7084 5.40876C86.2532 5.12594 86.8448 4.98242 87.4874 4.98242C88.1513 4.98242 88.7386 5.13438 89.2451 5.44253C89.7515 5.75068 90.1132 6.15169 90.3346 6.64557C90.5559 7.13945 90.6665 7.9457 90.6665 9.06009V14.5054H88.3003V9.7988C88.3003 8.74772 88.1683 8.03434 87.9045 7.65866C87.6406 7.28719 87.2448 7.10146 86.7171 7.10146C86.317 7.10146 85.9553 7.21543 85.6361 7.44338C85.3169 7.67132 85.0828 7.98369 84.9254 8.3847C84.7722 8.78572 84.6913 9.43156 84.6913 10.318V14.5097H82.3251V10.0099C82.3251 9.17829 82.2612 8.57888 82.1378 8.20319C82.0144 7.83173 81.8271 7.55313 81.5803 7.37162C81.3334 7.1901 81.0355 7.09724 80.6823 7.09724C80.2908 7.09724 79.9375 7.21121 79.6183 7.44338C79.2991 7.67554 79.0608 7.99635 78.9033 8.41425C78.7459 8.83215 78.665 9.48643 78.665 10.3771V14.5097H76.3158V5.22303H76.32Z" fill="white"/> <path d="M20.0582 9.94741C20.0582 15.4412 15.568 19.8948 10.0291 19.8948C4.49017 19.8948 0 15.4412 0 9.94741C0 4.45361 4.49017 0 10.0291 0C15.568 0 20.0582 4.45361 20.0582 9.94741ZM4.31251 9.94741C4.31251 13.0789 6.8719 15.6174 10.0291 15.6174C13.1863 15.6174 15.7457 13.0789 15.7457 9.94741C15.7457 6.81594 13.1863 4.27739 10.0291 4.27739C6.8719 4.27739 4.31251 6.81594 4.31251 9.94741Z" fill="#FF9E00"/> <path d="M35.8927 10C35.8927 15.5228 31.3788 20 25.8106 20C20.2424 20 15.7285 15.5228 15.7285 10C15.7285 4.47715 20.2424 0 25.8106 0C31.3788 0 35.8927 4.47715 35.8927 10ZM20.0638 10C20.0638 13.148 22.6367 15.7 25.8106 15.7C28.9845 15.7 31.5574 13.148 31.5574 10C31.5574 6.85198 28.9845 4.3 25.8106 4.3C22.6367 4.3 20.0638 6.85198 20.0638 10Z" fill="white"/> </svg> 